<svg xmlns="http://www.w3.org/2000/svg" width="119" height="44" fill="none" viewBox="0 0 119 44"><path fill="#8E1413" d="M5.61406 14.0137C6.18563 14.968 6.04929 16.1794 5.80283 17.2648C5.1762 20.0152 3.96226 22.603 3.2727 25.3377C2.59625 28.0277 2.49662 30.9616 3.88623 33.4446C5.15523 35.7099 7.38646 37.4036 9.90873 38.025C12.389 38.6359 15.1106 38.2007 17.2736 36.8425C19.1011 35.6968 20.5799 33.733 20.5038 31.5778C19.4315 32.6763 17.7482 32.9438 16.2223 32.7865C15.0372 32.6632 13.8626 32.3119 12.8662 31.6591C11.7441 30.9249 10.8788 29.8237 10.344 28.5941C9.4499 26.5332 9.47874 24.2102 9.21917 21.979C8.8757 19.011 7.88724 15.9486 5.61406 14.0137Z"/><path fill="#C63838" d="M21.6657 33.5787C21.6579 33.5892 21.6395 33.5839 21.6238 33.5865C22.0276 32.0711 22.1822 30.4874 22.0747 28.9222C21.886 26.1272 19.5472 24.2368 17.3606 22.8394C14.7859 21.1902 12.1692 19.895 10.368 17.2862C8.74239 14.9317 7.7618 12.1315 7.57565 9.27628C7.36589 6.04872 8.17082 2.76348 9.84883 0C9.75445 3.23542 10.1818 6.58621 11.8179 9.37853C14.3401 13.6837 19.3716 16.0958 21.7496 20.4823C23.3883 23.5053 23.7029 26.8404 23.0606 30.1885C22.822 31.4523 22.4654 32.5535 21.6657 33.5787Z"/><path fill="#8E1413" d="M24.2298 23.5316C25.2733 25.498 25.7531 27.7765 25.6141 30.0313C25.5538 31.1587 25.3205 32.2783 24.9639 33.3533C24.7751 33.8881 24.5654 34.4177 24.3032 34.9238C24.1826 35.1807 24.0331 35.4246 23.8994 35.6736C23.7473 35.9122 23.6084 36.1613 23.4406 36.3947C22.1689 38.2877 20.3572 39.811 18.2885 40.789C16.2172 41.7722 13.8733 42.1524 11.5922 41.9452C9.31115 41.7197 7.08516 40.8886 5.23934 39.5278C3.39614 38.1723 1.90428 36.3344 1.01808 34.229C0.897473 33.9694 0.808328 33.6993 0.706074 33.4345L0.574979 33.0281C0.530406 32.8944 0.488456 32.7581 0.454372 32.6191L0.344252 32.2075L0.255107 31.7906L0.210535 31.5835L0.17645 31.3737L0.110903 30.9542C0.0453554 30.3905 -0.00708261 29.8242 0.00078309 29.2579C-0.00446071 28.6915 0.0296239 28.1252 0.105659 27.5667C0.39669 25.3276 1.31698 23.1855 2.71183 21.4551C1.46118 23.293 0.677233 25.4273 0.501566 27.6113C0.45175 28.1567 0.43864 28.7046 0.464859 29.2474C0.477968 29.7927 0.551382 30.3355 0.635283 30.8729C0.831925 31.9427 1.13607 32.9941 1.60014 33.972C2.05373 34.9579 2.64104 35.8755 3.32535 36.7093C3.67406 37.1209 4.03851 37.5221 4.43704 37.8839C4.62844 38.0727 4.84343 38.2405 5.04532 38.4161L5.36519 38.6626C5.47007 38.7465 5.58018 38.8252 5.6903 38.9012C7.43911 40.1623 9.52876 40.9332 11.6682 41.1351C13.8103 41.3422 16.0075 40.9908 17.966 40.0889C18.0893 40.0365 18.2125 39.9788 18.3305 39.9159L18.6923 39.735C18.9257 39.5986 19.1669 39.478 19.3924 39.3286C19.8538 39.0506 20.2864 38.7255 20.7085 38.3873C21.5397 37.6977 22.2922 36.9086 22.924 36.0276C24.193 34.2709 25.0032 32.1734 25.2208 29.9946C25.4594 27.8184 25.1107 25.5715 24.2298 23.5316Z"/><path fill="#C63838" d="M7.59654 19.5672C7.80105 20.7365 7.91903 21.9242 8.02129 23.1093C8.17074 24.8739 8.20482 26.6987 8.76329 28.3951C9.03334 29.2158 9.43449 29.9918 9.98247 30.663C11.2017 32.1575 13.5247 33.4842 15.5147 33.1329C15.7192 33.0962 15.9211 33.0359 16.1072 32.9441C16.2147 32.889 16.3301 32.7894 16.4586 32.7894C14.3112 32.7894 12.0931 31.4601 10.9342 29.6798C10.0978 28.3925 9.73863 26.8377 9.58132 25.3275C9.56559 25.1649 9.54723 25.005 9.53412 24.8424C9.32699 22.3857 9.15395 19.9001 8.23628 17.585C7.93739 16.8299 7.56508 16.101 7.09576 15.4377C6.69461 14.874 6.14401 14.4571 5.61963 14.0166C5.78743 14.2001 6.08371 14.6118 6.18334 14.8425C6.30395 15.1283 6.42193 15.4193 6.53205 15.7103C6.76015 16.3108 6.96204 16.919 7.14033 17.5352C7.32649 18.2012 7.47593 18.8802 7.59654 19.5672Z"/><path fill="#000" d="M40.1542 35.4769V36.2399H41.8969V37.7754C41.5484 38.1239 40.8701 38.3594 40.0883 38.3594C38.5057 38.3594 37.4695 37.3609 37.4695 35.7313C37.4695 34.1204 38.468 33.0466 39.9847 33.0466C40.8419 33.0466 41.5295 33.3857 41.944 34.0168L42.5752 33.5647C42.0476 32.7451 41.1151 32.2741 39.9752 32.2741C38.0441 32.2553 36.5746 33.7154 36.6029 35.7218C36.5746 37.6906 37.9876 39.1601 40.0977 39.1319C41.2281 39.1319 42.1889 38.7457 42.707 38.0768V35.4769H40.1542ZM44.2164 39H45.0077V32.1046H44.2164V39ZM46.361 36.6167C46.3422 37.9638 47.369 39.1601 48.8102 39.1319C50.2515 39.1601 51.2783 37.9638 51.2594 36.6167C51.2783 35.2697 50.2515 34.0733 48.8102 34.1016C47.369 34.0733 46.3422 35.2697 46.361 36.6167ZM50.4305 36.6167C50.4305 37.1348 50.2798 37.5682 49.9783 37.8979C49.6863 38.2276 49.2907 38.3971 48.8102 38.3971C48.3298 38.3971 47.9342 38.2276 47.6327 37.8979C47.3407 37.5682 47.19 37.1348 47.19 36.6167C47.19 36.0986 47.3407 35.6653 47.6327 35.3356C47.9342 35.0059 48.3298 34.8364 48.8102 34.8364C49.2907 34.8364 49.6863 35.0059 49.9783 35.3356C50.2798 35.6653 50.4305 36.0986 50.4305 36.6167ZM57.4383 36.6167C57.4383 35.1472 56.4775 34.1016 55.1775 34.1016C54.3768 34.1016 53.6986 34.4972 53.4065 35.1095V32.1046H52.6153V39H53.4065V38.1239C53.6986 38.7362 54.3768 39.1319 55.1775 39.1319C56.4775 39.1319 57.4383 38.0863 57.4383 36.6167ZM56.6093 36.6167C56.6093 37.1348 56.4586 37.5682 56.1572 37.8979C55.8652 38.2276 55.4695 38.3971 54.9891 38.3971C54.5087 38.3971 54.113 38.2276 53.8116 37.8979C53.5196 37.5682 53.3689 37.1348 53.3689 36.6167C53.3689 36.0986 53.5196 35.6653 53.8116 35.3356C54.113 35.0059 54.5087 34.8364 54.9891 34.8364C55.4695 34.8364 55.8652 35.0059 56.1572 35.3356C56.4586 35.6653 56.6093 36.0986 56.6093 36.6167ZM62.4898 34.2335V35.1095C62.2166 34.4972 61.5289 34.1016 60.7282 34.1016C59.4189 34.1016 58.458 35.1472 58.458 36.6167C58.458 38.0863 59.4189 39.1319 60.7282 39.1319C61.5289 39.1319 62.2166 38.7362 62.4898 38.1239V39H63.2811V34.2335H62.4898ZM62.5275 36.6167C62.5275 37.1348 62.3767 37.5682 62.0753 37.8979C61.7833 38.2276 61.3876 38.3971 60.9072 38.3971C60.4268 38.3971 60.0312 38.2276 59.7297 37.8979C59.4377 37.5682 59.287 37.1348 59.287 36.6167C59.287 36.0986 59.4377 35.6653 59.7297 35.3356C60.0312 35.0059 60.4268 34.8364 60.9072 34.8364C61.3876 34.8364 61.7833 35.0059 62.0753 35.3356C62.3767 35.6653 62.5275 36.0986 62.5275 36.6167ZM64.979 39H65.7703V32.1046H64.979V39ZM70.5947 38.237V36.0515H74.0895V35.2979H70.5947V33.169H74.2779V32.406H69.7657V39H74.3721V38.237H70.5947ZM80.0617 35.9479C80.0617 34.7704 79.4494 34.1016 78.3661 34.1016C77.5842 34.1016 76.9719 34.4407 76.7082 35.0436V34.2335H75.9169V39H76.7082V36.1646C76.7082 35.3639 77.3205 34.8364 78.1777 34.8364C78.9313 34.8364 79.2704 35.232 79.2704 36.1363V39H80.0617V35.9479ZM86.0077 36.8617C86.0265 36.7204 86.036 36.5791 86.036 36.4378C86.036 35.053 85.094 34.1016 83.7657 34.1016C82.3622 34.1016 81.3825 35.1661 81.3825 36.6262C81.3825 38.1051 82.3904 39.1319 83.8317 39.1319C84.7077 39.1319 85.4425 38.7551 85.9041 38.1051L85.3671 37.6529C84.9715 38.1522 84.4628 38.3971 83.8505 38.3971C82.9179 38.3971 82.2774 37.8131 82.1926 36.8617H86.0077ZM82.2114 36.2211C82.3527 35.3639 82.9274 34.8364 83.7657 34.8364C84.5947 34.8364 85.1505 35.345 85.2258 36.2211H82.2114ZM90.0452 34.2241C89.9227 34.177 89.772 34.1581 89.6119 34.1581C88.9054 34.1581 88.3779 34.5161 88.1612 35.1284V34.2335H87.3699V39H88.1612V36.5602C88.1612 35.4392 88.6981 34.8929 89.6307 34.8929C89.772 34.8929 89.9039 34.9023 90.0452 34.9211V34.2241ZM94.6318 34.2335V35.1001C94.3587 34.4878 93.671 34.1016 92.8703 34.1016C91.5609 34.1016 90.6001 35.1095 90.6001 36.5508C90.6001 37.9921 91.5609 39 92.8703 39C93.6898 39 94.3587 38.6232 94.6318 38.0203V38.4536C94.6318 39.6594 94.0384 40.2811 92.9457 40.2811C92.2768 40.2811 91.674 40.0456 91.2312 39.6406L90.7791 40.2246C91.2689 40.7239 92.0508 41.0159 92.9457 41.0159C94.5282 41.0159 95.4231 40.1116 95.4231 38.4536V34.2335H94.6318ZM94.6695 36.5508C94.6695 37.0501 94.5188 37.4645 94.2174 37.7848C93.9253 38.1051 93.5297 38.2652 93.0493 38.2652C92.5689 38.2652 92.1732 38.1051 91.8718 37.7848C91.5798 37.4645 91.429 37.0501 91.429 36.5508C91.429 36.0515 91.5798 35.6371 91.8718 35.3168C92.1732 34.9965 92.5689 34.8364 93.0493 34.8364C93.5297 34.8364 93.9253 34.9965 94.2174 35.3168C94.5188 35.6371 94.6695 36.0515 94.6695 36.5508ZM100.371 34.2335V36.937C100.371 37.7283 99.7493 38.2652 98.8826 38.2652C98.1384 38.2652 97.7899 37.8696 97.7899 36.9653V34.2335H96.9986V37.1537C96.9986 38.35 97.6298 39 98.6942 39C99.4761 39 100.098 38.6609 100.371 38.058V38.5384C100.371 39.6971 99.8058 40.2811 98.8167 40.2811C98.2515 40.2811 97.7051 40.0833 97.3189 39.7348L96.8573 40.3C97.3001 40.7521 98.0348 41.0159 98.8355 41.0159C100.305 41.0159 101.162 40.1492 101.162 38.5384V34.2335H100.371Z"/><path fill="url(#paint0_linear_344_331)" d="M56.5019 3.93262V25.0935H52.9031L41.7783 10.0986V25.0935H38V3.93262H41.5988L52.7541 18.9274V3.93262H56.5019Z"/><path fill="url(#paint1_linear_344_331)" d="M80.3217 3.93262V25.0935H76.723L65.5981 10.0986V25.0935H61.8198V3.93262H65.4186L76.574 18.9274V3.93262H80.3217Z"/><path fill="url(#paint2_linear_344_331)" d="M99.9998 21.5253V25.0935H85.6392V3.93262H89.4786V21.5253H99.9998Z"/><defs><linearGradient id="paint0_linear_344_331" x1="38.001" x2="56.502" y1="14.512" y2="14.512" gradientUnits="userSpaceOnUse"><stop stop-color="#8E1413"/><stop offset="1" stop-color="#C63838"/></linearGradient><linearGradient id="paint1_linear_344_331" x1="61.82" x2="80.321" y1="14.512" y2="14.512" gradientUnits="userSpaceOnUse"><stop stop-color="#8E1413"/><stop offset="1" stop-color="#C63838"/></linearGradient><linearGradient id="paint2_linear_344_331" x1="85.639" x2="99.999" y1="14.512" y2="14.512" gradientUnits="userSpaceOnUse"><stop stop-color="#8E1413"/><stop offset="1" stop-color="#C63838"/></linearGradient></defs></svg>