<svg width="24" height="24" viewBox="0 0 24 24" fill="none" xmlns="http://www.w3.org/2000/svg">
<g filter="url(#filter0_b_145_1052)">
<path fill-rule="evenodd" clip-rule="evenodd" d="M0 12C0 5.37258 5.37258 0 12 0C18.6274 0 24 5.37258 24 12C24 18.6274 18.6274 24 12 24C5.37258 24 0 18.6274 0 12Z" fill="white" fill-opacity="0.1"/>
</g>
<g clip-path="url(#clip0_145_1052)">
<path d="M13.3322 7.82646H14.3364V6.07746C14.1631 6.05362 13.5673 6 12.8734 6C11.4255 6 10.4337 6.91071 10.4337 8.58454V10.125H8.83594V12.0803H10.4337V17H12.3926V12.0807H13.9257L14.1691 10.1255H12.3921V8.77842C12.3926 8.21329 12.5448 7.82646 13.3322 7.82646Z" fill="white"/>
</g>
<defs>
<filter id="filter0_b_145_1052" x="-20" y="-20" width="64" height="64" filterUnits="userSpaceOnUse" color-interpolation-filters="sRGB">
<feFlood flood-opacity="0" result="BackgroundImageFix"/>
<feGaussianBlur in="BackgroundImage" stdDeviation="10"/>
<feComposite in2="SourceAlpha" operator="in" result="effect1_backgroundBlur_145_1052"/>
<feBlend mode="normal" in="SourceGraphic" in2="effect1_backgroundBlur_145_1052" result="shape"/>
</filter>
<clipPath id="clip0_145_1052">
<rect width="11" height="11" fill="white" transform="translate(6 6)"/>
</clipPath>
</defs>
</svg>
