<?xml version="1.0" standalone="no"?>
<!DOCTYPE svg PUBLIC "-//W3C//DTD SVG 20010904//EN"
 "http://www.w3.org/TR/2001/REC-SVG-20010904/DTD/svg10.dtd">
<svg version="1.0" xmlns="http://www.w3.org/2000/svg"
 width="161.000000pt" height="161.000000pt" viewBox="0 0 161.000000 161.000000"
 preserveAspectRatio="xMidYMid meet">
<metadata>
Created by potrace 1.14, written by Peter Selinger 2001-2017
</metadata>
<g transform="translate(0.000000,161.000000) scale(0.100000,-0.100000)"
fill="#000000" stroke="none">
<path d="M657 1549 c-43 -94 -56 -159 -52 -272 4 -110 17 -163 66 -263 43 -87
114 -156 245 -239 185 -118 233 -176 238 -287 1 -35 -1 -81 -5 -103 -9 -51 -5
-55 17 -14 37 72 48 227 24 333 -29 122 -84 196 -299 400 -141 134 -185 226
-200 416 l-7 85 -27 -56z"/>
<path d="M533 992 c-1 -53 -12 -99 -54 -217 -51 -145 -53 -154 -53 -260 -1
-97 2 -116 24 -160 33 -68 107 -140 177 -173 50 -23 71 -27 153 -27 84 0 102
3 152 28 86 42 143 108 162 189 l6 27 -42 -19 c-76 -35 -195 -21 -264 30 -69
51 -108 144 -120 280 -7 98 -30 210 -53 263 -18 42 -66 107 -79 107 -4 0 -8
-30 -9 -68z"/>
<path d="M347 668 c-54 -149 -44 -281 31 -416 34 -61 124 -150 188 -184 108
-58 238 -74 369 -44 6 1 27 10 49 19 21 9 40 17 43 17 2 0 23 13 46 29 102 70
171 169 201 287 17 64 22 179 9 187 -5 3 -8 -18 -7 -46 3 -172 -105 -350 -260
-426 -282 -138 -611 22 -677 330 -14 64 -7 177 15 239 8 24 14 46 12 48 -2 2
-11 -16 -19 -40z"/>
<path d="M1272 600 c0 -14 2 -19 5 -12 2 6 2 18 0 25 -3 6 -5 1 -5 -13z"/>
</g>
</svg>
