<svg xmlns="http://www.w3.org/2000/svg" width="38" height="38" fill="none" viewBox="0 0 38 38"><path fill="#FFFEFE" fill-rule="evenodd" d="M26.8209 4.75C28.9441 4.75 30.9866 5.58917 32.4892 7.09492C33.9934 8.5975 34.8341 10.6242 34.8341 12.7458V25.2542C34.8341 29.6717 31.24 33.25 26.8209 33.25H11.1791C6.76006 33.25 3.16748 29.6717 3.16748 25.2542V12.7458C3.16748 8.32833 6.74423 4.75 11.1791 4.75H26.8209ZM29.34 15.105L29.4666 14.9783C29.8451 14.5192 29.8451 13.8542 29.4492 13.395C29.2291 13.1591 28.9267 13.015 28.6116 12.9833C28.2791 12.9659 27.9625 13.0783 27.7234 13.3L20.5841 19C19.6658 19.7616 18.3501 19.7616 17.4175 19L10.2925 13.3C9.80006 12.9358 9.11923 12.9833 8.70915 13.4108C8.28165 13.8383 8.23415 14.5192 8.59673 14.9942L8.80415 15.2L16.0083 20.8208C16.895 21.5175 17.9701 21.8975 19.0958 21.8975C20.2184 21.8975 21.3125 21.5175 22.1976 20.8208L29.34 15.105Z" clip-rule="evenodd"/></svg>