<svg xmlns="http://www.w3.org/2000/svg" width="38" height="38" fill="none" viewBox="0 0 38 38"><path fill="#FFFEFE" fill-rule="evenodd" d="M19.0473 3.16702C22.6257 3.18286 26.0457 4.60786 28.5473 7.10952C31.0648 9.62702 32.474 13.0312 32.4582 16.562V16.6412C32.3632 21.4387 29.6715 25.8562 26.3148 29.3079C24.4148 31.2554 22.309 32.9812 20.0132 34.4379C19.3957 34.9604 18.4932 34.9604 17.8757 34.4379C14.4715 32.2212 11.4632 29.4345 9.02484 26.1887C6.88734 23.3704 5.66817 19.982 5.5415 16.4512C5.57317 9.08869 11.6215 3.15119 19.0473 3.16702ZM19.0473 20.9954C20.1715 20.9954 21.2482 20.5679 22.0398 19.792C22.8632 18.9845 23.3239 17.9095 23.3239 16.7837C23.3239 14.4404 21.4065 12.5562 19.0473 12.5562C16.6882 12.5562 14.7882 14.4404 14.7882 16.7837C14.7882 19.097 16.6565 20.9637 18.9998 20.9954H19.0473Z" clip-rule="evenodd"/></svg>