<svg xmlns="http://www.w3.org/2000/svg" width="38" height="38" fill="none" viewBox="0 0 38 38"><path fill="#FFFEFE" fill-rule="evenodd" d="M7.9299 16.9331C7.9299 15.9536 7.94169 14.9741 7.95354 13.99C7.95955 13.4911 7.96557 12.991 7.97008 12.4892C7.97008 7.09748 11.3453 3.16634 16.0063 3.16634H21.9933C26.6544 3.16634 30.0296 7.09748 30.0296 12.4892C30.0698 14.649 30.0832 16.8088 30.0832 18.9841C30.0832 21.1595 30.0698 23.3503 30.0296 25.5101C30.0296 30.9019 26.6544 34.833 21.9933 34.833H16.0063C11.3453 34.833 7.97008 30.9019 7.97008 25.4946C7.94329 23.4591 7.9165 21.377 7.9165 19.2638L7.9299 16.9331ZM21.0265 31.0967V31.3501C21.0265 32.4166 20.1348 33.2501 18.9998 33.2501C17.8919 33.2501 16.9732 32.4166 16.9732 31.3501V31.0967C16.9732 30.0581 17.8919 29.1967 18.9998 29.1967C20.1348 29.1967 21.0265 30.0581 21.0265 31.0967ZM11.1096 13.3688C11.1012 14.0084 11.0927 14.6451 11.0927 15.2818L11.0832 16.7968C11.0832 18.1703 11.1023 19.5237 11.1214 20.8468C11.1214 24.3615 13.5323 26.9167 16.8616 26.9167H21.1381C24.4674 26.9167 26.8782 24.3615 26.8782 20.8569C26.9069 19.453 26.9165 18.0289 26.9165 16.615C26.9165 15.201 26.9069 13.7971 26.8782 12.3933C26.8782 8.88864 24.4674 6.3334 21.1381 6.3334H16.8616C13.5323 6.3334 11.1214 8.88864 11.1214 12.3933C11.1182 12.7194 11.1139 13.0445 11.1096 13.3688Z" clip-rule="evenodd"/></svg>