<svg xmlns="http://www.w3.org/2000/svg" width="72" height="51" fill="none" viewBox="0 0 72 51"><path fill="#8E1413" d="M62.1022 50.193C60.0576 48.3041 58.0672 46.4695 56.0054 44.5663C60.8486 39.2458 63.4301 33.1039 63.5701 26.0405C63.71 18.9627 61.3455 12.7292 56.8021 7.33717C58.7868 5.37383 60.7315 3.45055 62.6791 1.52441C74.7615 13.8511 75.6439 36.6442 62.1022 50.193Z"/><path fill="#8E1413" d="M10.4173 0.237305C12.2964 2.32372 14.1297 4.35861 15.9573 6.39064C5.53412 17.6756 6.66211 33.4424 14.8436 43.2935C12.8018 45.1338 10.7429 46.9912 8.6925 48.8372C-2.82159 36.5792 -3.53837 14.0981 10.4173 0.237305Z"/><path fill="#8E1413" d="M23.8248 3.98926C26.1151 7.12317 28.4053 10.2571 30.6927 13.3938C32.1234 15.3543 33.5484 17.3177 34.9791 19.2782C35.813 20.4201 37.0409 20.546 38.0261 19.5386C42.3211 15.1511 46.5989 10.7493 50.8852 6.35329C50.9966 6.44773 51.1051 6.54504 51.2165 6.63949C50.177 8.28801 49.1376 9.93653 48.0952 11.5851C45.8078 15.2055 43.5062 18.8202 41.2502 22.4607C41.0446 22.7927 41.0331 23.3079 41.076 23.72C41.1588 24.4985 41.3501 25.2626 41.4472 25.7778C43.2834 26.5048 44.9768 27.1773 46.6703 27.847C46.6388 27.9558 46.6046 28.0646 46.5732 28.1733C45.4223 28.0617 44.2686 27.9615 43.1178 27.8413C41.9355 27.7154 41.9355 27.7068 41.4958 26.7223C40.4763 27.8499 40.1222 28.8945 40.8361 30.4744C42.6866 34.5642 44.2886 38.7685 45.8678 43.0386C45.7022 42.8583 45.5166 42.6895 45.3709 42.492C42.6123 38.8028 39.8509 35.1194 37.1123 31.416C36.7668 30.9495 36.4498 30.7634 35.8187 30.7377C34.9962 30.7062 34.091 30.4858 33.3971 30.0594C32.7345 29.653 32.2691 29.7159 31.6437 29.9792C27.4487 31.748 23.2394 33.4881 18.9502 35.1108C19.1415 34.942 19.3214 34.7588 19.5213 34.6043C22.9738 31.954 26.4235 29.2952 29.8932 26.6679C30.4186 26.2701 30.6613 25.8808 30.6613 25.1768C30.6613 24.4527 31.0012 23.7372 31.1268 23.0045C31.2096 22.518 31.3467 21.9398 31.1696 21.5248C28.7109 15.7092 26.2036 9.91364 23.7078 4.11232C23.7506 4.07226 23.7877 4.03219 23.8248 3.98926ZM36.0728 21.1413C33.7912 21.1156 31.8607 23.036 31.835 25.3628C31.8093 27.6152 33.6684 29.5299 35.9415 29.5871C38.2403 29.6444 40.2678 27.6467 40.265 25.3256C40.2621 23.1304 38.2917 21.1671 36.0728 21.1413Z"/><path fill="#8E1413" d="M53.2152 7.15755C60.3029 13.6915 63.1101 24.9936 58.9408 34.9306C54.603 45.271 44.0656 51.4587 32.9741 50.2481C21.8056 49.0289 12.8673 40.6746 10.914 29.3124C9.10636 18.7859 14.3123 8.93486 21.7913 4.32129C22.2568 5.00817 22.2482 5.46323 21.4971 6.05853C14.238 11.8226 10.9311 19.3154 12.1876 28.5683C13.6269 39.1778 21.8341 47.3031 32.3801 48.8486C45.3506 50.7461 57.6586 41.5046 59.352 28.471C60.3286 20.9468 58.184 14.3384 53.0153 8.75169C52.4099 8.10201 52.4041 8.10774 53.2152 7.15755Z"/><path fill="#8E1413" d="M50.0227 4.59597C49.4602 5.2943 48.9319 5.28858 48.1323 4.81921C41.3586 0.826692 34.2765 0.21422 26.9146 3.019C25.9722 3.37961 25.9751 3.38247 25.4097 2.35501C32.1148 -1.33986 43.3062 -0.756005 50.0227 4.59597Z"/><path fill="#8E1413" d="M32.3262 36.6568C32.5461 34.8709 32.7345 33.0822 33.0344 31.3106C33.0686 31.1074 33.754 30.8183 34.0539 30.8985C34.4936 31.0129 35.4417 30.8355 35.1761 31.7685C34.6593 33.583 34.0196 35.3632 32.6489 36.7456C32.5403 36.7141 32.4347 36.6855 32.3262 36.6568Z"/><path fill="#8E1413" d="M26.5718 22.0859C27.9225 22.2548 29.0048 22.3922 30.0842 22.5296C30.1528 22.5381 30.2813 22.5696 30.2784 22.5839C30.2413 23.268 30.2413 23.9634 30.1071 24.6303C30.0728 24.7934 29.4988 25.0338 29.3161 24.9451C28.1452 24.3756 27.0058 23.7316 25.875 23.0819C25.7579 23.0132 25.6779 22.6011 25.7322 22.5639C26.0549 22.3321 26.4204 22.1661 26.5718 22.0859Z"/><path fill="#fff" d="M36.0726 21.1409C38.2914 21.1666 40.2618 23.13 40.2647 25.3223C40.2676 27.6434 38.2372 29.6439 35.9412 29.5838C33.6681 29.5266 31.809 27.6148 31.8347 25.3595C31.8604 23.0355 33.788 21.1151 36.0726 21.1409ZM34.1079 25.3738C34.1164 26.5329 34.9303 27.34 36.064 27.3171C37.2091 27.2942 37.9859 26.4642 37.9545 25.3023C37.923 24.1775 37.0463 23.3446 35.9355 23.3876C34.896 23.4305 34.0993 24.2948 34.1079 25.3738Z"/><path fill="#8E1413" d="M34.108 25.3745C34.0994 24.2956 34.8961 23.4284 35.9356 23.3883C37.0465 23.3454 37.9232 24.1782 37.9546 25.303C37.986 26.465 37.2092 27.295 36.0641 27.3179C34.9333 27.3436 34.1194 26.5337 34.108 25.3745Z"/></svg>