<svg width="55" height="45" viewBox="0 0 55 45" fill="none" xmlns="http://www.w3.org/2000/svg">
<path d="M3.43493 38.2106C3.43493 37.5085 3.43493 36.8191 3.43493 36.1304C3.43493 35.3607 3.44243 34.591 3.42675 33.8219C3.4247 33.7081 3.34016 33.5308 3.24745 33.4933C1.26492 32.6854 0.354097 30.1012 2.01211 28.118C1.45035 27.4775 1.14152 26.7231 1.14425 25.8684C1.14697 25.0251 1.44422 24.2775 2.00598 23.6443C0.774055 22.1116 0.950628 20.3914 2.00666 19.1204C1.53557 18.5555 1.22946 17.9149 1.16061 17.168C1.03039 15.749 1.81986 14.4171 3.1895 13.7987C3.34766 13.727 3.44106 13.6641 3.44038 13.4653C3.43152 11.2793 3.43425 9.09269 3.43288 6.9067C3.43288 6.87458 3.42197 6.84312 3.40766 6.76347C3.07701 6.76347 2.74091 6.76615 2.4048 6.7628C1.62147 6.75477 1.14697 6.30432 1.14288 5.53661C1.13811 4.71135 1.10879 3.88273 1.17629 3.06215C1.32014 1.32193 2.7634 0.0174309 4.54686 0.00939906C8.04629 -0.00733384 11.5457 0.00337522 15.0451 0.00337522C16.8518 0.00337522 18.6584 0.00136727 20.4644 0.00404453C22.6098 0.0067218 24.0702 1.45111 24.0702 3.56481C24.0702 4.17857 24.0708 4.79166 24.0702 5.40543C24.0695 6.34648 23.64 6.7628 22.6692 6.76347C22.3869 6.76347 22.104 6.76347 21.7911 6.76347C21.7849 6.89265 21.7747 6.99974 21.7747 7.1075C21.774 9.19309 21.7768 11.2793 21.7699 13.3649C21.7693 13.5885 21.8067 13.7277 22.0529 13.812C23.2071 14.2076 24.3483 14.64 25.5052 15.0289C27.2001 15.5991 28.9045 16.1446 30.6041 16.7001C30.6975 16.7309 30.7922 16.759 30.9143 16.7965C30.9483 16.5777 30.9661 16.3789 31.0104 16.1868C31.2674 15.0824 31.9212 14.2873 32.9636 13.802C33.1081 13.7344 33.2336 13.6949 33.2322 13.4821C33.222 11.2961 33.2254 9.10942 33.224 6.92344C33.224 6.88127 33.2118 6.8391 33.2002 6.76347C32.8647 6.76347 32.5382 6.76548 32.2123 6.7628C31.4058 6.75744 30.9306 6.30499 30.9327 5.52189C30.9347 4.66382 30.9033 3.80108 30.9777 2.94837C31.1154 1.3748 32.5382 0.0877091 34.1451 0.0100684C34.2357 0.00538316 34.3271 0.00404453 34.4178 0.00404453C39.7238 0.00337522 45.0292 -0.000640681 50.3353 0.00538316C52.0615 0.00739111 53.4277 1.06558 53.7727 2.68332C53.8647 3.11436 53.847 3.56949 53.8586 4.01459C53.8715 4.53866 53.8722 5.06341 53.8586 5.58748C53.8402 6.29829 53.3698 6.74874 52.6478 6.7628C52.2987 6.76949 51.9497 6.76414 51.5665 6.76414C51.5665 6.90804 51.5665 7.01647 51.5665 7.12423C51.5665 9.19911 51.5699 11.2733 51.5611 13.3482C51.5604 13.5865 51.6129 13.7116 51.8563 13.8221C53.8436 14.7216 54.4701 17.1426 53.1802 18.8801C53.1202 18.9604 53.0589 19.0401 52.9996 19.1177C54.2192 20.6103 54.059 22.3666 53.003 23.6155C54.1449 25.1141 54.1572 26.6194 52.9989 28.1381C53.4488 28.6802 53.7577 29.2886 53.8299 29.9994C53.9806 31.4733 53.2273 32.8019 51.8576 33.4284C51.6252 33.5348 51.5563 33.6553 51.5583 33.9022C51.5727 35.3078 51.5665 36.7127 51.5679 38.1183C51.5679 38.1397 51.5761 38.1611 51.589 38.2253C51.6865 38.23 51.7942 38.2387 51.902 38.2387C52.538 38.2401 53.1748 38.232 53.8109 38.2421C54.5199 38.2528 54.9876 38.7019 54.9923 39.398C55.0026 40.8812 55.0026 42.3651 54.9923 43.8483C54.9869 44.5651 54.5226 44.9961 53.7754 44.9975C51.1166 45.0015 48.4584 44.9995 45.7996 44.9995C37.8463 44.9995 29.8937 44.9995 21.9404 44.9988C21.2498 44.9988 20.8223 44.7177 20.6655 44.1669C20.4801 43.5176 20.9232 42.8517 21.6056 42.764C21.7508 42.7452 21.9001 42.7499 22.0474 42.7499C32.0228 42.7493 41.9982 42.7493 51.9735 42.7493C52.2081 42.7493 52.4426 42.7493 52.6907 42.7493C52.6907 41.9829 52.6907 41.2634 52.6907 40.5224C35.8972 40.5224 19.1213 40.5224 2.31686 40.5224C2.31686 41.248 2.31686 41.9755 2.31686 42.7486C2.4757 42.7486 2.63046 42.7486 2.7859 42.7486C6.02354 42.7486 9.26185 42.7472 12.4995 42.7493C13.289 42.7499 13.7969 43.2546 13.7416 43.9734C13.7007 44.5015 13.274 44.9366 12.7367 44.9901C12.6127 45.0022 12.4872 44.9988 12.3625 44.9988C8.70418 44.9995 5.04591 44.9995 1.38695 44.9988C0.407955 44.9988 0.0016314 44.5992 0.000949649 43.6381C0.000267898 42.266 -0.0010956 40.8939 0.0016314 39.5225C0.0029949 38.6811 0.449542 38.2427 1.30173 38.2394C1.97189 38.2367 2.64205 38.2374 3.31289 38.2354C3.33744 38.2347 3.35994 38.226 3.43493 38.2106ZM5.75356 13.476C10.3417 13.476 14.8924 13.476 19.4445 13.476C19.4445 11.2298 19.4445 9.00635 19.4445 6.78355C14.8679 6.78355 10.3179 6.78355 5.75356 6.78355C5.75356 9.01906 5.75356 11.2338 5.75356 13.476ZM49.2397 13.4767C49.2397 11.2325 49.2397 9.00969 49.2397 6.78087C44.6652 6.78087 40.1158 6.78087 35.5543 6.78087C35.5543 9.02241 35.5543 11.2445 35.5543 13.4767C40.1274 13.4767 44.6768 13.4767 49.2397 13.4767ZM33.2261 38.22C33.2261 36.6919 33.2274 35.1887 33.2206 33.686C33.2206 33.6278 33.1586 33.5421 33.102 33.516C32.7761 33.3614 32.4536 33.1934 32.1128 33.079C30.5788 32.5643 29.0388 32.0663 27.5007 31.563C26.3738 31.1942 25.2462 30.8274 24.0961 30.4519C24.077 30.5389 24.0572 30.6005 24.0497 30.6641C23.897 31.998 23.1873 32.9284 21.9547 33.4973C21.862 33.5401 21.7829 33.7155 21.7815 33.8299C21.7686 34.9557 21.774 36.0822 21.774 37.208C21.774 37.5393 21.774 37.8713 21.774 38.22C25.5986 38.22 29.3871 38.22 33.2261 38.22ZM5.75288 38.2166C10.3431 38.2166 14.8924 38.2166 19.4424 38.2166C19.4424 36.7201 19.4424 35.2456 19.4424 33.771C14.8645 33.771 10.3152 33.771 5.75288 33.771C5.75288 35.2603 5.75288 36.7281 5.75288 38.2166ZM49.2486 33.7717C44.6577 33.7717 40.1083 33.7717 35.5583 33.7717C35.5583 35.269 35.5583 36.7441 35.5583 38.216C40.1363 38.216 44.6856 38.216 49.2486 38.216C49.2486 36.7267 49.2486 35.2589 49.2486 33.7717ZM21.7604 4.49114C21.7604 4.04939 21.789 3.63709 21.7529 3.23015C21.7065 2.70808 21.2716 2.32323 20.7323 2.26968C20.6198 2.2583 20.5053 2.25562 20.3921 2.25562C15.2019 2.25429 10.0125 2.25295 4.82229 2.25362C4.69753 2.25362 4.57209 2.2583 4.44869 2.27437C3.95988 2.33795 3.59923 2.603 3.50856 3.06884C3.41925 3.52866 3.44584 4.00923 3.42061 4.49181C9.56728 4.49114 15.6417 4.49114 21.7604 4.49114ZM51.5611 4.4811C51.5611 4.19798 51.5611 3.9336 51.5611 3.66855C51.5611 2.65253 51.1554 2.25228 50.1185 2.25228C45.1219 2.25161 40.1247 2.25161 35.1282 2.25295C34.8445 2.25295 34.5596 2.24826 34.2773 2.27102C33.7585 2.31252 33.3304 2.65721 33.2677 3.15786C33.2138 3.59225 33.2561 4.03801 33.2561 4.4811C39.3625 4.4811 45.4444 4.4811 51.5611 4.4811ZM12.6079 18.0013C13.4594 18.0013 14.3116 18.0013 15.1631 18.0013C16.9575 18.0013 18.7518 18.006 20.5462 17.9993C21.4495 17.9959 22.0235 17.1854 21.6663 16.423C21.4284 15.915 20.9893 15.747 20.4432 15.747C15.219 15.751 9.99542 15.749 4.77116 15.7497C4.6689 15.7497 4.56595 15.7464 4.46505 15.7604C3.92715 15.8334 3.5256 16.2256 3.45197 16.7436C3.38448 17.2148 3.67013 17.7202 4.1419 17.8962C4.33757 17.9692 4.56118 17.9959 4.77252 17.9966C7.38363 18.0033 9.99542 18.0006 12.6079 18.0013ZM42.4283 15.749C39.7934 15.749 37.1591 15.751 34.5241 15.7477C34.0039 15.747 33.5874 15.9197 33.3502 16.3943C32.9609 17.1733 33.5472 17.9999 34.4921 17.9999C39.7613 18.002 45.0306 18.0013 50.2998 17.9993C50.4232 17.9993 50.55 17.9872 50.6707 17.9605C51.1323 17.8581 51.4643 17.504 51.5454 17.0408C51.619 16.6192 51.4145 16.1366 51.0082 15.9351C50.7757 15.82 50.4914 15.7577 50.2296 15.7564C47.6294 15.7444 45.0292 15.749 42.4283 15.749ZM42.3977 22.5004C44.9645 22.5004 47.5312 22.5004 50.0974 22.4998C50.2446 22.4998 50.3939 22.5051 50.5398 22.4891C51.0804 22.4281 51.4977 22.0065 51.5549 21.4737C51.6074 20.9891 51.2843 20.4791 50.7982 20.3272C50.608 20.2676 50.3966 20.2502 50.1949 20.2502C44.9931 20.2462 39.792 20.2468 34.5903 20.2482C34.4546 20.2482 34.3169 20.2549 34.1839 20.2776C33.6154 20.3747 33.2131 20.8586 33.2336 21.4115C33.254 21.9784 33.706 22.4449 34.2889 22.4931C34.4355 22.5051 34.5841 22.5004 34.7314 22.5004C37.2873 22.5004 39.8425 22.5004 42.3977 22.5004ZM12.6072 22.5004C15.174 22.5004 17.7408 22.5004 20.3076 22.4998C20.4548 22.4998 20.6041 22.5051 20.75 22.4897C21.275 22.4335 21.6956 22.0219 21.7631 21.5092C21.8292 21.0079 21.5122 20.4851 21.0125 20.3272C20.8121 20.2636 20.5885 20.2502 20.3751 20.2502C15.2074 20.2462 10.0404 20.2468 4.87274 20.2482C4.71457 20.2482 4.55368 20.2535 4.39824 20.279C3.83171 20.3707 3.42266 20.8606 3.44311 21.4094C3.46356 21.9623 3.8992 22.4261 4.46437 22.4897C4.59936 22.5051 4.73639 22.4998 4.87274 22.4998C7.45112 22.5004 10.0288 22.5004 12.6072 22.5004ZM42.3609 26.9935C42.9969 26.9935 43.633 26.9935 44.2684 26.9935C46.2898 26.9935 48.3112 26.9949 50.3326 26.9922C50.9086 26.9915 51.3245 26.7098 51.4956 26.2366C51.754 25.5244 51.1752 24.7446 50.2998 24.7493C45.8371 24.7728 41.3737 24.7607 36.9109 24.7607C36.0594 24.7607 35.2072 24.7567 34.3557 24.7641C33.8581 24.7681 33.4538 25.0639 33.297 25.5137C33.0331 26.2687 33.5922 26.9909 34.4566 26.9922C37.0916 26.9962 39.7259 26.9935 42.3609 26.9935ZM12.6092 24.7621C12.6092 24.7614 12.6092 24.7614 12.6092 24.7607C9.99746 24.7607 7.38499 24.76 4.77321 24.7627C4.59322 24.7627 4.40506 24.7654 4.23599 24.8156C3.7049 24.9729 3.36607 25.5204 3.45538 26.0384C3.55628 26.6274 4.02532 26.9915 4.70094 26.9915C9.97019 26.9929 15.2394 26.9929 20.5087 26.9909C20.6546 26.9909 20.8066 26.9835 20.9457 26.944C21.4836 26.7928 21.8292 26.2747 21.7624 25.7426C21.6909 25.175 21.2218 24.7641 20.615 24.7627C17.9467 24.76 15.2776 24.7621 12.6092 24.7621ZM12.6072 31.4914C15.1849 31.4914 17.7626 31.4914 20.341 31.4907C20.4773 31.4907 20.6144 31.4947 20.7494 31.4793C21.2395 31.4244 21.562 31.1554 21.712 30.7002C21.8599 30.2518 21.7563 29.8261 21.3786 29.559C21.1318 29.3843 20.7807 29.2686 20.476 29.2679C15.2292 29.2505 9.98314 29.2552 4.73639 29.2552C4.66822 29.2552 4.60004 29.2532 4.53187 29.2572C3.97487 29.286 3.52765 29.6936 3.45129 30.2397C3.38039 30.7518 3.71513 31.2805 4.23326 31.4311C4.41392 31.4833 4.61368 31.488 4.80457 31.488C7.40613 31.492 10.0063 31.4907 12.6072 31.4914ZM42.3854 31.4907C44.1116 31.4907 45.8378 31.4907 47.564 31.4907C48.4952 31.4907 49.4265 31.4947 50.3578 31.4893C50.9284 31.486 51.3463 31.1935 51.5018 30.7116C51.7479 29.9479 51.1848 29.2565 50.3101 29.2565C45.0408 29.2552 39.7716 29.2558 34.5023 29.2558C34.4341 29.2558 34.366 29.2538 34.2978 29.2578C33.4415 29.3141 32.9541 30.2525 33.4115 30.9639C33.6685 31.3635 34.051 31.494 34.5159 31.4934C37.1386 31.488 39.762 31.4914 42.3854 31.4907ZM31.8087 28.128C31.1679 27.4018 30.8897 26.5444 30.9327 25.5599C28.507 26.3483 26.1318 27.1207 23.7566 27.8924C23.762 27.9165 23.7681 27.94 23.7736 27.9641C26.1454 28.7398 28.5172 29.5155 30.9265 30.3033C30.9865 29.4607 31.2558 28.7518 31.8087 28.128ZM23.2016 23.5727C23.3986 23.8899 23.595 24.1523 23.732 24.4408C23.8738 24.74 23.9577 25.0652 24.077 25.4073C26.5026 24.6195 28.929 23.8317 31.339 23.0493C31.2231 22.7079 31.0929 22.4087 31.024 22.0975C30.9524 21.7756 30.9402 21.4402 30.8979 21.0734C28.3379 21.9047 25.7827 22.734 23.2016 23.5727ZM30.0464 18.9698C30.0484 18.947 30.0505 18.9243 30.0532 18.9015C28.0707 18.253 26.0875 17.6044 24.0729 16.9458C24.0224 17.7971 23.7375 18.5106 23.2623 19.0481C23.5663 19.69 23.8452 20.2776 24.1356 20.8894C26.0704 20.2609 28.0584 19.615 30.0464 18.9698Z" fill="#8E1413"/>
</svg>
