<svg xmlns="http://www.w3.org/2000/svg" width="81" height="67" fill="none" viewBox="0 0 81 67"><path fill="#8E1413" d="M32.0077 64.2094C29.2223 66.2176 26.1335 67.2736 22.6104 66.8751C20.0137 66.5816 17.8414 65.3985 15.8701 63.8048C15.6086 63.5938 15.7492 62.8858 15.7036 62.4084C16.139 62.4207 16.6559 62.2862 16.9939 62.475C17.7057 62.871 18.3237 63.4347 19.1786 64.0798C19.1786 58.2487 19.1786 52.6816 19.1786 47.1046C16.9594 46.5853 16.9581 46.5853 16.9581 44.1107C16.9581 42.4232 16.9581 40.7357 16.9606 39.0482C16.9631 36.9856 17.0741 36.8647 19.2859 36.7019C19.2859 35.4017 19.3155 34.0805 19.2624 32.7643C19.2513 32.4794 19.0046 32.1179 18.7579 31.9428C14.4157 28.8601 10.0575 25.8008 5.70052 22.7403C5.63391 22.6934 5.52906 22.7008 5.28974 22.6527C5.28974 26.0339 5.28974 29.3856 5.28974 32.7372C5.28974 34.326 5.24287 35.9161 5.31318 37.5013C5.34032 38.1304 5.64501 38.7422 5.78564 39.3714C5.85965 39.7032 5.92133 40.0659 5.86705 40.394C5.70176 41.4043 5.55126 42.4294 5.23917 43.3977C5.12691 43.7456 4.61004 44.0836 4.2116 44.1959C2.76338 44.6017 2.05284 45.3715 2.21074 46.6322C2.36247 47.8398 2.97556 48.6404 4.29671 48.7009C5.72026 48.7675 6.4456 48.0385 6.81814 46.705C6.9304 46.3016 7.52745 46.0351 7.90245 45.7058C8.12326 46.1387 8.57722 46.6038 8.52417 46.9998C8.29103 48.7391 6.87365 50.7338 4.02039 50.4896C2.05654 50.3218 0.579953 48.6787 0.512106 46.6161C0.452894 44.825 1.14863 43.526 2.75475 42.8019C3.712 42.3702 3.60221 41.7213 3.36413 40.9775C3.24941 40.6185 2.8596 40.2028 2.95458 39.945C4.15609 36.6723 3.27531 33.2997 3.47269 29.9838C3.61948 27.5105 3.47639 25.0212 3.51709 22.5405C3.52943 21.7818 3.35303 21.3217 2.64002 20.8986C0.111194 19.3911 -0.695564 16.66 0.632996 14.3026C1.71978 12.3746 4.26587 11.0904 7.27333 12.2512C11.6081 13.9239 16.1168 15.1538 20.5774 16.4848C22.0602 16.9277 23.6564 16.9918 25.1367 17.4384C26.1902 17.7567 27.3461 18.2254 28.08 18.989C29.1582 20.1091 30.2931 20.399 31.7561 20.3595C34.5292 20.2842 34.2183 20.135 34.2405 22.8118C34.2454 23.3435 34.2417 23.8764 34.2417 24.3797C35.4655 24.8991 37.7537 23.6531 37.1073 26.5175C40.2036 26.5175 43.1901 26.5175 46.2543 26.5175C47.2806 20.9689 48.3033 15.4388 49.3271 9.90865C47.2547 9.28076 46.9192 8.60723 47.3041 5.84032C47.4225 4.99162 47.4225 4.99162 49.8304 4.82139C50.3411 2.94758 50.3411 2.94758 53.3548 2.74034C53.5287 1.91138 53.5312 0.971398 53.9506 0.289231C54.1603 -0.0524694 55.136 -0.00312643 55.7615 0.0104429C56.9038 0.0338808 56.9038 0.0770558 57.227 2.6614C60.3541 3.14372 60.3541 3.14372 60.4713 4.7005C63.4096 5.33579 63.3566 5.33579 63.3541 7.95467C63.3529 9.33997 62.6917 9.81366 61.2139 9.66933C61.6037 11.8108 61.9651 13.8129 62.3327 15.8138C63.2801 20.9825 64.209 26.1548 65.2082 31.3149C65.3081 31.828 65.8496 32.2499 66.1654 32.7286C66.4405 33.1455 66.8414 33.5588 66.9093 34.0152C67.0302 34.8404 66.9438 35.6953 66.9438 36.7722C68.5647 36.7722 70.1289 36.7685 71.6943 36.7734C73.5077 36.7796 73.6088 36.8832 73.615 38.7385C73.6212 40.674 73.6187 42.6083 73.6187 44.5437C73.6187 46.7457 73.6175 46.7457 71.4821 47.0467C71.4821 53.0727 71.4821 59.111 71.4821 65.2073C74.1121 65.1925 76.2968 64.1206 78.3926 62.7192C78.8009 62.4466 79.7002 62.2838 79.9531 62.5194C80.7734 63.2854 79.8285 63.7258 79.3634 64.1169C75.1989 67.6202 69.1198 67.9274 64.5211 64.8114C63.7748 64.3056 63.3233 64.334 62.6078 64.7855C57.8844 67.7645 53.171 67.751 48.4735 64.6658C48.1602 64.4598 47.4879 64.3907 47.2202 64.5844C42.5104 68.0088 36.72 67.64 32.0077 64.2094ZM18.7542 45.0372C36.5436 45.0372 54.1739 45.0372 71.8337 45.0372C71.8337 42.8192 71.8337 40.7197 71.8337 38.6386C54.085 38.6386 36.4474 38.6386 18.7542 38.6386C18.7542 40.8023 18.7542 42.8661 18.7542 45.0372ZM21.0746 46.9455C21.0746 52.7322 21.0536 58.3783 21.1239 64.0243C21.1276 64.3747 21.7974 64.952 22.2243 65.0235C24.4521 65.3961 26.6133 65.1062 28.6857 64.1366C29.6269 63.6962 30.0698 63.1621 30.0377 62.021C29.9427 58.6509 30.0044 55.2758 30.0044 51.9032C30.0044 50.2823 30.0044 48.6614 30.0044 46.9467C26.9957 46.9455 24.14 46.9455 21.0746 46.9455ZM49.6947 46.9936C46.6577 46.9936 43.8057 46.9936 40.8969 46.9936C40.8969 53.0529 40.8969 59.0185 40.8969 65.5231C42.6621 64.7225 44.1819 64.1304 45.6054 63.3594C46.9093 62.6526 48.0553 61.324 49.6947 63.3557C49.6947 57.6172 49.6947 52.3449 49.6947 46.9936ZM69.5824 65.4467C69.5824 58.9938 69.5824 53.0196 69.5824 46.985C66.6071 46.985 63.7168 46.985 60.8019 46.985C60.8019 52.6125 60.8019 58.155 60.8019 63.8405C61.3656 63.4655 61.8195 63.2472 62.1687 62.9166C63.1851 61.9519 64.0128 62.1876 65.0898 62.9709C66.364 63.8985 67.8604 64.5202 69.5824 65.4467ZM21.1893 26.4015C21.1893 29.9431 21.1893 33.3268 21.1893 36.676C23.3653 36.676 25.4217 36.676 27.5965 36.676C27.5965 33.7697 27.6347 30.9584 27.5767 28.1471C27.5533 27.0344 27.8185 26.5434 29.0583 26.6088C31.0382 26.7149 33.0267 26.6372 35.0127 26.6372C35.0115 26.5582 35.0103 26.4805 35.0078 26.4015C30.4226 26.4015 25.8399 26.4015 21.1893 26.4015ZM29.4567 28.4308C29.4567 31.268 29.4567 33.9634 29.4567 36.6859C34.2899 36.6859 39.0169 36.6859 43.8932 36.6859C43.8932 35.9618 43.8599 35.3252 43.9031 34.6936C43.9426 34.1139 43.8686 33.1948 44.1807 33.0184C46.0976 31.9354 45.1897 30.0036 45.9521 28.432C40.322 28.4308 34.9449 28.4308 29.4567 28.4308ZM6.7725 21.2662C9.6455 23.2843 12.273 25.131 15.2114 27.1947C14.5971 23.1239 15.8195 20.1547 19.2168 17.9466C15.9219 16.9462 12.8947 16.0259 9.66647 15.0465C10.1118 17.8183 9.41975 19.8858 6.7725 21.2662ZM58.8565 57.7553C56.3289 57.7553 53.974 57.7553 51.4834 57.7553C51.4834 59.4675 51.6278 61.1069 51.4427 62.7069C51.2589 64.292 52.0373 64.9174 53.34 65.0001C55.157 65.1161 56.9876 65.0297 58.8577 65.0297C58.8565 62.3812 58.8565 60.1189 58.8565 57.7553ZM39.0527 57.7775C36.5584 57.7775 34.2121 57.7775 31.8326 57.7775C31.8326 59.2504 31.8326 60.5864 31.8326 61.8496C34.0481 63.3545 36.0588 65.1975 39.0527 65.0618C39.0527 62.6181 39.0527 60.2582 39.0527 57.7775ZM45.6548 36.6748C52.2507 36.6748 58.6789 36.6748 65.0959 36.6748C65.0959 35.8877 65.0959 35.213 65.0959 34.4901C58.5814 34.4901 52.157 34.4901 45.6548 34.4901C45.6548 35.2463 45.6548 35.9161 45.6548 36.6748ZM58.8306 53.1208C58.8306 51.0089 58.8306 49.013 58.8306 46.9862C56.3536 46.9862 53.9654 46.9862 51.5796 46.9862C51.5796 49.1006 51.5796 51.094 51.5796 53.1208C54.0295 53.1208 56.3499 53.1208 58.8306 53.1208ZM31.8869 46.9381C31.8869 49.0549 31.8869 51.0508 31.8869 53.0665C34.3244 53.0665 36.6657 53.0665 38.9947 53.0665C38.9947 50.9509 38.9947 48.9599 38.9947 46.9381C36.5868 46.9381 34.3133 46.9381 31.8869 46.9381ZM26.4345 20.3311C24.7519 18.6769 22.772 18.5239 20.76 19.2838C18.1929 20.2534 16.8656 22.2888 16.7669 24.9718C16.6954 26.9246 17.3837 28.6639 19.2933 29.9678C19.2933 29.055 19.2933 28.3716 19.2933 27.6882C19.2945 24.8509 19.2945 24.8509 22.1046 24.3661C22.1046 23.7642 22.1009 23.1301 22.1046 22.496C22.1169 20.2966 22.1206 20.2966 24.3645 20.3287C25.0553 20.3398 25.7449 20.3311 26.4345 20.3311ZM61.1312 24.5228C59.271 23.4434 57.6673 22.48 56.0242 21.5918C55.7158 21.4253 55.1718 21.4253 54.8573 21.5844C53.1117 22.4677 51.402 23.4237 49.4172 24.4981C51.4514 25.5393 53.2635 26.478 55.0904 27.3835C55.2557 27.4649 55.553 27.3933 55.7405 27.2971C57.4885 26.4126 59.2253 25.5072 61.1312 24.5228ZM8.00854 16.6156C8.01718 14.7739 6.7984 13.5366 4.97271 13.5329C3.22474 13.5304 1.70497 15.0317 1.75062 16.7192C1.79256 18.292 3.25064 19.7476 4.82468 19.7871C6.58623 19.8328 7.99991 18.424 8.00854 16.6156ZM59.7817 16.7772C58.1188 15.794 56.6916 14.9503 55.2828 14.1176C53.8198 15.0058 52.4259 15.852 51.085 16.6662C53.6706 19.3036 56.2894 19.5466 59.023 17.2102C59.1624 17.0905 59.345 17.0227 59.7817 16.7772ZM23.9106 24.4636C26.8502 24.4636 29.6035 24.4636 32.3667 24.4636C32.3667 23.6556 32.3667 22.9438 32.3667 22.1642C29.5209 22.1642 26.7774 22.1642 23.9106 22.1642C23.9106 22.9882 23.9106 23.6976 23.9106 24.4636ZM49.659 32.4929C53.5349 32.4929 57.111 32.4929 61.0153 32.4929C59.1341 31.5159 57.5798 30.6858 56.0008 29.9074C55.6813 29.7507 55.1879 29.6249 54.9103 29.7606C53.2141 30.5883 51.5562 31.495 49.659 32.4929ZM47.0907 31.7923C49.2642 30.6537 51.2108 29.6323 53.3511 28.511C51.5698 27.6043 50.0105 26.8099 48.2132 25.8933C47.8357 27.8781 47.4854 29.7186 47.0907 31.7923ZM57.2677 28.5406C59.3882 29.6347 61.32 30.6302 63.5034 31.7565C63.0951 29.6483 62.7472 27.8498 62.3722 25.9192C60.6205 26.8197 59.0243 27.6388 57.2677 28.5406ZM61.3397 7.83378C61.4741 7.71659 61.6086 7.5994 61.7431 7.48221C61.4544 7.21575 61.1682 6.72232 60.8759 6.71862C57.206 6.66558 53.5349 6.66435 49.865 6.71986C49.5714 6.72479 49.2864 7.25153 48.9965 7.53525C49.1002 7.63517 49.2038 7.73386 49.3074 7.83378C53.3177 7.83378 57.3281 7.83378 61.3397 7.83378ZM53.5164 20.2435C52.1261 19.5207 50.9394 18.9039 49.601 18.2081C49.3037 19.8241 49.0471 21.223 48.7498 22.8377C50.4065 21.9348 51.851 21.149 53.5164 20.2435ZM51.344 9.72114C52.7256 10.5328 53.7507 11.162 54.8079 11.7356C55.0522 11.8676 55.4703 11.9342 55.6899 11.8133C56.7767 11.2162 57.824 10.5476 59.1859 9.72114C56.4683 9.72114 54.1294 9.72114 51.344 9.72114ZM61.7838 22.7095C61.468 21.0269 61.2163 19.6884 60.94 18.2205C59.588 18.9557 58.4445 19.5774 57.2146 20.2472C58.0201 20.7172 58.727 21.1515 59.4536 21.5474C60.0839 21.8904 60.7377 22.1914 61.7838 22.7095ZM35.4469 55.8902C36.4326 55.8902 37.4207 55.9247 38.4026 55.8655C38.6357 55.8519 38.8491 55.5213 39.0724 55.3375C38.8479 55.208 38.6246 54.9687 38.3989 54.965C36.4276 54.9354 34.4552 54.9354 32.4851 54.965C32.2643 54.9687 32.0472 55.2105 31.8276 55.3412C32.0485 55.525 32.2606 55.8531 32.4913 55.868C33.4732 55.9272 34.4613 55.8926 35.4469 55.8902ZM55.1422 55.8914C56.1759 55.8914 57.2109 55.9148 58.2422 55.8729C58.463 55.8643 58.6727 55.6126 58.8886 55.4732C58.6641 55.298 58.442 54.9761 58.215 54.9711C56.1982 54.9317 54.1788 54.9366 52.1607 54.9674C51.9411 54.9711 51.7252 55.224 51.5069 55.361C51.7338 55.5386 51.9534 55.8544 52.189 55.868C53.1722 55.9247 54.1578 55.8902 55.1422 55.8914ZM50.1425 15.0983C51.4168 14.3434 52.4308 13.7426 53.5484 13.0814C52.6134 12.5485 51.8251 12.0995 50.8691 11.5542C50.6286 12.7249 50.4275 13.7081 50.1425 15.0983ZM57.0419 13.1073C58.2595 13.808 59.2586 14.3828 60.412 15.0465C60.1567 13.7734 59.942 12.7027 59.7077 11.532C58.7948 12.0711 57.9942 12.5436 57.0419 13.1073Z"/><path fill="#8E1413" d="M35.68 32.9511C35.7195 36.1831 35.9674 35.8969 31.9324 35.8636C30.4447 35.8513 30.3732 35.5824 30.4077 32.1185C30.4188 31.0391 30.4928 30.0794 31.9645 30.2126C32.3074 30.2434 32.6565 30.2163 33.0019 30.2163C36.1142 30.2114 35.6504 30.0929 35.68 32.9511ZM33.8087 34.0157C33.8087 33.2731 33.8087 32.6946 33.8087 32.1222C33.2129 32.1222 32.7046 32.1222 32.2211 32.1222C32.2211 32.8117 32.2211 33.3854 32.2211 34.0157C32.7885 34.0157 33.2635 34.0157 33.8087 34.0157Z"/><path fill="#8E1413" d="M38.0633 33.0601C38.0633 32.5654 38.0732 32.0707 38.0608 31.5761C38.0386 30.6571 38.4716 30.2636 39.3968 30.2043C43.3529 29.9515 44.035 30.6978 43.4183 34.7094C43.4034 34.8068 43.4306 34.9265 43.3825 35.0005C42.3241 36.6646 40.6809 35.6678 39.3117 35.8344C38.3174 35.9553 38.0029 35.1645 38.0584 34.248C38.083 33.8533 38.0633 33.456 38.0633 33.0601ZM41.5839 31.9906C40.9129 32.0226 40.4009 32.0473 39.9297 32.0707C39.9297 32.8109 39.9297 33.3845 39.9297 33.9852C40.5193 33.9852 41.0288 33.9852 41.5839 33.9852C41.5839 33.3204 41.5839 32.748 41.5839 31.9906Z"/></svg>