<svg width="49" height="66" viewBox="0 0 49 66" fill="none" xmlns="http://www.w3.org/2000/svg">
<path d="M26.1375 18.8268C32.4323 22.6756 38.6932 26.5037 44.9645 30.3393C44.6076 31.1002 44.2791 31.8252 43.9307 32.5418C43.1283 34.1919 42.3155 35.8374 41.5112 37.4866C40.3217 39.9251 39.136 42.3664 37.9484 44.8058C36.892 46.9771 35.8337 49.1483 34.7802 51.3215C33.8843 53.17 32.9997 55.024 32.101 56.8706C31.6082 57.8835 31.1598 58.1913 30.3762 58.0969C29.3019 57.9666 28.4579 57.2529 28.2691 56.2966C28.1483 55.683 28.1105 55.0458 27.9255 54.4529C27.3695 52.6677 25.7278 51.5783 23.9332 51.7435C22.0243 51.9191 20.6602 53.2115 20.3704 55.11C20.2996 55.5735 20.2458 56.0446 20.1211 56.4949C19.8502 57.4729 18.672 58.2309 17.6723 58.0997C17.1342 58.0299 16.8255 57.6777 16.6008 57.2123C15.5567 55.0505 14.5079 52.8915 13.4562 50.7343C12.1091 47.9711 10.7534 45.2108 9.40724 42.4476C8.31499 40.2055 7.22745 37.9615 6.14181 35.7166C5.34976 34.0796 4.56432 32.4389 3.77793 30.7991C3.71091 30.6593 3.66654 30.5092 3.59668 30.3242C9.79335 26.5018 15.974 22.6888 22.2537 18.8154C22.2537 19.0911 22.2537 19.2695 22.2537 19.4479C22.2537 22.5312 22.2471 25.6153 22.2613 28.6986C22.2632 29.1649 22.3226 29.6398 22.4265 30.0939C22.5917 30.8161 23.2714 31.2909 24.0785 31.3155C25.0282 31.3447 25.6759 30.9558 25.9204 30.1788C26.0091 29.8984 26.0837 29.6001 26.0865 29.3084C26.1139 26.9653 26.1252 24.6222 26.1366 22.2791C26.1422 21.1557 26.1375 20.0314 26.1375 18.8268Z" fill="#8E1413"/>
<path d="M7.85254 21.7223C7.85254 19.4548 7.85254 17.2929 7.85254 15.0886C10.7564 15.0886 13.6301 15.0886 16.5783 15.0886C16.5783 13.1269 16.5783 11.2048 16.5783 9.23931C17.8886 9.23931 19.1253 9.23931 20.4168 9.23931C20.4168 6.13909 20.4168 3.08229 20.4168 0C22.9496 0 25.4268 0 27.9436 0C27.9436 3.02753 27.9436 6.04091 27.9436 9.11753C29.2275 9.11753 30.4755 9.11753 31.782 9.11753C31.782 11.1208 31.782 13.0636 31.782 15.0414C31.9727 15.0565 32.1068 15.0772 32.2418 15.0772C34.2243 15.0791 36.2068 15.0791 38.1883 15.0782C38.7358 15.0782 39.2862 15.0367 39.83 15.081C40.3907 15.1273 40.6447 15.3907 40.7032 15.9476C40.7448 16.3489 40.706 16.7586 40.706 17.1645C40.7051 18.6231 40.706 20.0807 40.706 21.6402C39.9914 21.2447 39.3268 20.9105 38.6952 20.5215C34.7133 18.0736 30.7398 15.6125 26.7616 13.159C26.2169 12.8229 25.6779 12.4726 25.1105 12.18C24.3336 11.7807 23.5821 11.978 22.8835 12.4094C17.8981 15.4926 12.9183 18.5825 7.85254 21.7223Z" fill="#8E1413"/>
<path d="M11.5868 57.01C12.5724 59.7411 14.2519 61.7472 17.3332 61.9709C20.8941 62.2296 22.9814 60.2499 24.1813 56.9883C25.4293 59.9252 27.2192 62.0323 30.6111 61.987C33.9889 61.9417 35.8222 59.9224 36.8465 57.0043C37.2798 57.7775 37.6489 58.6101 38.1719 59.3323C39.1329 60.6578 40.4338 61.481 42.0935 61.7321C43.299 61.9143 44.4469 61.6065 45.6194 61.4895C46.1708 61.4338 46.7598 61.4036 47.2857 61.5386C47.9673 61.7141 48.1891 62.3391 48.2609 62.9961C48.3543 63.8533 48.1183 64.5953 47.2677 64.9097C46.3265 65.2571 45.3542 65.5573 44.3695 65.7367C42.7892 66.0237 41.2268 65.8122 39.7362 65.2137C39.1056 64.9607 38.4938 64.6482 37.9029 64.3102C37.192 63.9034 36.5368 63.8599 35.7977 64.2829C34.4241 65.0693 32.9665 65.6111 31.3635 65.7773C29.1148 66.0105 27.0776 65.4072 25.13 64.3782C24.389 63.9864 23.7281 63.9978 22.9767 64.415C21.6503 65.1514 20.2276 65.6177 18.6955 65.7754C16.4109 66.0105 14.3425 65.4403 12.4204 64.2517C11.6407 63.7693 10.9411 63.9515 10.2312 64.3877C8.92276 65.191 7.50293 65.6357 5.96792 65.7735C4.2998 65.9236 2.71948 65.6357 1.1807 65.0183C0.27159 64.6539 -0.151339 63.9336 0.0487973 62.9697C0.228165 62.1069 0.853118 61.3195 1.85663 61.4338C2.64302 61.5234 3.41902 61.6953 4.20068 61.8218C6.70238 62.2249 8.73868 61.4423 10.2104 59.3654C10.7278 58.6375 11.1195 57.819 11.5868 57.01Z" fill="#8E1413"/>
</svg>
