<svg width="70" height="61" viewBox="0 0 70 61" fill="none" xmlns="http://www.w3.org/2000/svg">
<path d="M70 26.2871C69.4408 28.2462 68.8947 30.1607 68.3224 32.1652C68.1922 31.9948 68.1092 31.8892 68.0288 31.78C63.73 25.9369 57.9581 22.9481 50.6981 23.0739C42.4089 23.2171 35.0232 28.5301 32.1214 36.2763C32.0044 36.589 31.8585 36.6894 31.5282 36.6885C23.315 36.6789 15.1027 36.6815 6.88947 36.6807C6.74705 36.6807 6.60463 36.6676 6.47007 36.6614C6.17737 34.9286 7.03539 33.1888 8.59939 32.5652C10.0454 31.9887 10.6282 30.9389 10.6929 29.462C10.7785 27.4924 10.1817 25.7037 9.30974 23.9831C8.21145 21.8188 6.76278 19.8807 5.36042 17.9147C3.83923 15.7818 2.28222 13.6665 1.20664 11.2602C0.753167 10.2453 0.419397 9.17716 0 8.04785C0.696374 7.97623 1.25295 7.90811 1.81214 7.86356C5.58497 7.56311 9.34819 7.68888 13.1027 8.14393C20.9987 9.10205 28.5618 11.3659 35.9878 14.1093C42.2796 16.4334 48.5199 18.8955 54.7934 21.2694C59.6531 23.108 64.5601 24.8094 69.5823 26.1561C69.7064 26.1902 69.8287 26.2339 70 26.2871ZM16.235 15.5128C14.6754 15.4997 13.4111 16.7077 13.3945 18.2265C13.3788 19.7436 14.6291 21.0004 16.1695 21.0162C17.7213 21.0319 18.9856 19.8144 18.9996 18.292C19.0144 16.7531 17.7938 15.5268 16.235 15.5128Z" fill="#8E1413"/>
<path d="M39.9082 36.6234C39.8671 36.1142 39.7098 35.674 39.3516 35.3142C39.0021 34.9631 38.6491 34.6163 38.3057 34.26C37.7491 33.6835 37.743 32.9219 38.3005 32.3498C38.8894 31.7454 39.4879 31.1489 40.0934 30.5611C40.6692 30.0012 41.4258 30.0004 42.006 30.5497C42.3651 30.8904 42.705 31.2511 43.0641 31.5908C43.6521 32.1463 44.3433 32.2677 45.086 31.9813C45.8732 31.6773 46.6473 31.341 47.4215 31.003C48.2061 30.6607 48.6133 30.0563 48.6124 29.1916C48.6115 28.7549 48.6071 28.3182 48.6141 27.8815C48.6272 26.9749 49.1585 26.443 50.0584 26.4369C50.8597 26.4316 51.66 26.4308 52.4612 26.4369C53.3175 26.4439 53.8505 26.9679 53.8697 27.8221C53.8802 28.3025 53.861 28.7828 53.8767 29.2632C53.9038 30.086 54.3075 30.6694 55.058 30.9961C55.8321 31.3323 56.6124 31.6537 57.397 31.9638C58.158 32.2642 58.8562 32.1446 59.4564 31.5751C59.805 31.2441 60.1318 30.8912 60.4796 30.5602C61.079 29.9881 61.8251 29.9846 62.4245 30.5637C63.0213 31.1402 63.6084 31.7271 64.186 32.3228C64.7845 32.9394 64.7723 33.6713 64.1668 34.2984C63.833 34.6443 63.4791 34.97 63.1524 35.322C62.615 35.9002 62.4997 36.5832 62.7723 37.3081C63.0737 38.1108 63.4075 38.903 63.7535 39.6882C64.0811 40.4323 64.6622 40.8446 65.4879 40.8681C65.9536 40.8812 66.4202 40.8664 66.8859 40.8743C67.7771 40.8882 68.338 41.4359 68.3494 42.3162C68.3599 43.1311 68.3599 43.9469 68.3494 44.7618C68.338 45.574 67.8339 46.0937 67.0161 46.1304C66.5364 46.1522 66.0549 46.1304 65.5744 46.14C64.7164 46.1575 64.11 46.5619 63.7753 47.3532C63.452 48.1165 63.1323 48.8816 62.8256 49.652C62.5145 50.4328 62.6561 51.1359 63.2406 51.742C63.5744 52.0879 63.9247 52.4172 64.2533 52.7674C64.7994 53.3473 64.8133 54.0644 64.2638 54.6426C63.6618 55.2749 63.0431 55.8933 62.4088 56.4925C61.8435 57.027 61.0999 57.0043 60.5285 56.461C60.1703 56.1204 59.8356 55.7536 59.4765 55.4129C58.9025 54.8679 58.2192 54.7448 57.494 55.0147C56.6622 55.3239 55.8426 55.6671 55.0335 56.0313C54.3232 56.3501 53.9352 56.9231 53.909 57.7109C53.8924 58.2052 53.9151 58.7013 53.9012 59.1957C53.8784 60.0036 53.3638 60.539 52.5547 60.5599C51.6958 60.5817 50.8361 60.5844 49.9772 60.559C49.1882 60.5355 48.684 60.0044 48.6604 59.2175C48.6473 58.7668 48.6587 58.3153 48.6561 57.8637C48.65 56.951 48.2306 56.3152 47.383 55.9658C46.643 55.661 45.9055 55.3501 45.162 55.054C44.3695 54.7387 43.6504 54.8557 43.0327 55.4645C42.7006 55.7911 42.3765 56.1265 42.041 56.4488C41.4451 57.0209 40.6919 57.0218 40.0969 56.4436C39.5019 55.8654 38.913 55.2802 38.3319 54.688C37.7553 54.0993 37.7553 53.3316 38.3241 52.7412C38.6473 52.4058 38.9872 52.0861 39.3088 51.7499C39.9029 51.1298 40.0366 50.4136 39.7142 49.6188C39.4136 48.8773 39.1052 48.1392 38.8003 47.3995C38.4542 46.5601 37.8217 46.1321 36.906 46.1243C36.4542 46.1199 36.0025 46.1321 35.5517 46.1199C34.747 46.0972 34.2183 45.5749 34.2026 44.7653C34.186 43.9216 34.1851 43.0761 34.2035 42.2324C34.221 41.4463 34.7356 40.9258 35.522 40.8882C36.0156 40.8646 36.5119 40.8882 37.0073 40.8777C37.8514 40.8594 38.4411 40.4498 38.7697 39.6786C39.1061 38.889 39.432 38.0951 39.7465 37.2968C39.8278 37.0837 39.8549 36.8487 39.9082 36.6234ZM57.8138 43.5049C57.8112 39.8786 54.8876 36.9492 51.2633 36.9413C47.66 36.9343 44.6989 39.8873 44.6928 43.4962C44.6867 47.106 47.6286 50.0432 51.2546 50.0467C54.8885 50.0502 57.8164 47.1304 57.8138 43.5049Z" fill="#8E1413"/>
<path d="M30.4874 8.81333C31.6163 7.62637 32.6936 6.49357 33.8688 5.2577C33.5752 5.2577 33.4109 5.2577 33.2458 5.2577C29.431 5.2577 25.6163 5.27604 21.8024 5.24372C20.9391 5.23674 20.0767 5.05682 19.2143 4.94939C19.1209 4.93803 19.0344 4.87689 18.8823 4.81314C19.4039 4.40962 19.8758 4.02533 20.3712 3.67509C20.4848 3.59474 20.6779 3.61133 20.8351 3.61046C22.4655 3.60609 24.0968 3.59998 25.7272 3.61483C26.0427 3.61745 26.227 3.5336 26.3729 3.24014C26.7163 2.55015 27.106 1.88374 27.4616 1.19986C27.5743 0.982386 27.7045 0.881945 27.9649 0.882818C32.5949 0.890679 37.2248 0.887185 41.8548 0.895046C42.0479 0.895046 42.2602 0.956184 42.4315 1.04876C48.0304 4.06288 53.625 7.08573 59.2257 10.0972C59.5088 10.2492 59.6137 10.4143 59.6093 10.7348C59.5909 12.0301 59.6172 13.3253 59.5909 14.6206C59.584 14.9752 59.7133 15.128 60.0173 15.2652C61.5289 15.9482 63.0274 16.6609 64.5372 17.3465C64.8116 17.4714 64.9251 17.6181 64.919 17.9317C64.8981 19.0356 64.9112 20.1405 64.9112 21.3275C64.2419 21.11 63.6189 20.9318 63.0134 20.7056C56.5669 18.2994 50.1353 15.8565 43.6766 13.4852C39.4171 11.9209 35.1209 10.4579 30.8404 8.9487C30.746 8.91551 30.6534 8.87709 30.4874 8.81333Z" fill="#8E1413"/>
</svg>
